<?xml version="1.0" encoding="UTF-8"?>
<svg id="Layer_2" data-name="Layer 2" xmlns="http://www.w3.org/2000/svg" viewBox="0 0 1125.29 165">
  <defs>
    <style>
      .cls-1 {
        fill: #414745;
      }

      .cls-2 {
        fill: #8b2635;
      }
    </style>
  </defs>
  <g id="Layer_1-2" data-name="Layer 1">
    <g>
      <g>
        <path class="cls-1" d="m0,.44h71.94v17.82h-36.08l33.44,41.14v25.52L0,.44Zm0,48.62l69.3,87.34v-28.38L0,20.9v28.16Zm0,87.34h33.44L0,95.26v-28.16l66.66,87.12H0v-17.82Z"/>
        <path class="cls-1" d="m165.22.44v127.82c0,3.23-.59,6.38-1.77,9.46-1.18,3.08-2.84,5.83-4.97,8.25-2.13,2.42-4.6,4.37-7.39,5.83-2.8,1.47-5.81,2.2-9.05,2.2h-18.1c-3.09,0-6.04-.73-8.83-2.2-2.8-1.46-5.23-3.41-7.28-5.83-2.06-2.42-3.72-5.17-4.97-8.25-1.25-3.08-1.88-6.23-1.88-9.46V.44l18.04,17.82v110c0,1.47.51,2.72,1.54,3.74,1.02,1.03,2.12,1.54,3.3,1.54h18.04c1.32,0,2.53-.51,3.63-1.54,1.1-1.02,1.65-2.27,1.65-3.74V18.26L165.22.44Z"/>
        <path class="cls-1" d="m226.92.22c3.24,0,6.45.63,9.61,1.87,3.17,1.25,6,3.01,8.5,5.28,2.5,2.28,4.49,5.06,5.97,8.36,1.47,3.3,2.21,6.93,2.21,10.89v72.82c0,3.38-.74,6.6-2.21,9.68-1.47,3.08-3.46,5.87-5.97,8.36-2.5,2.5-5.34,4.48-8.5,5.94-3.17,1.47-6.37,2.2-9.61,2.2h-23.64v28.82h-18.04V.22h41.68Zm5.4,26.4c0-1.46-.67-3.19-2-5.17-1.33-1.98-3.32-2.97-5.98-2.97h-21.06v86.24h23.72c1.33,0,2.55-.55,3.66-1.65s1.66-2.31,1.66-3.63V26.62Z"/>
        <path class="cls-1" d="m363.66,154.22h-83.38V.44h73.04l-15.84,18.26h-39.16v52.14h26.18l23.54,18.26h-49.72v46.86h65.34v18.26Z"/>
        <path class="cls-1" d="m446.6,54.19c0,1.32-.52,3.05-1.54,5.18-1.03,2.13-2.28,3.86-3.74,5.18l-5.06,4.85,5.06,5.29c1.46,1.32,2.71,3.05,3.74,5.18,1.02,2.13,1.54,3.78,1.54,4.96v67.19l-20.68,13v-69.52c0-5.28-1.62-9.16-4.84-11.66-3.23-2.49-6.75-3.74-10.56-3.74h-10.34v74.36h-20.46V0h41.14c3.22,0,6.38.63,9.46,1.87,3.08,1.25,5.83,3.01,8.25,5.29,2.42,2.28,4.36,4.99,5.83,8.15,1.46,3.16,2.2,6.65,2.2,10.46v28.42Zm-20.68-28.23c0-2.49-.55-4.4-1.65-5.72-1.1-1.32-2.24-1.98-3.41-1.98h-20.68v41.14h10.34c3.81,0,7.33-1.28,10.56-3.85,3.22-2.56,4.84-6.49,4.84-11.77v-17.82Z"/>
        <path class="cls-2" d="m638.22,136.4l-15.84,18.26h-57.2V.66h20.68v135.74h52.36Z"/>
        <path class="cls-2" d="m695.28,1.32c7.75,0,14,2.28,18.75,6.82,4.75,4.55,7.13,10.12,7.13,16.72v106.48c0,6.46-2.38,11.96-7.13,16.5-4.75,4.55-11,6.82-18.75,6.82h-15.57c-7.75,0-14-2.27-18.75-6.82-4.75-4.54-7.13-10.04-7.13-16.5V24.86c0-6.6,2.38-12.17,7.13-16.72,4.75-4.54,11-6.82,18.75-6.82h15.57Zm7.83,44.22v-20.68c0-1.46-.63-2.71-1.88-3.74-1.26-1.02-3.21-1.54-5.87-1.54h-15.73c-2.66,0-4.62.52-5.87,1.54-1.26,1.03-1.88,2.28-1.88,3.74v106.48c0,1.32.63,2.5,1.88,3.52,1.25,1.03,3.21,1.54,5.87,1.54h15.73c2.66,0,4.61-.51,5.87-1.54,1.25-1.02,1.88-2.2,1.88-3.52V45.54Z"/>
        <path class="cls-2" d="m757.23,146.84c-4.7-4.48-7.04-10.02-7.04-16.63V23.79c0-6.61,2.34-12.15,7.04-16.63,4.69-4.48,11-6.72,18.92-6.72h15.62c7.92,0,14.19,2.27,18.81,6.79,4.62,4.53,6.93,10.11,6.93,16.75v23.54l-18.04,15.4V23.98c0-1.17-.67-2.34-1.99-3.52-1.33-1.17-3.25-1.76-5.76-1.76h-15.73c-2.66,0-4.62.59-5.87,1.76-1.26,1.18-1.88,2.35-1.88,3.52v106.26c0,1.32.63,2.5,1.88,3.52,1.25,1.03,3.21,1.54,5.87,1.54h15.73c2.51,0,4.43-.51,5.76-1.54,1.33-1.02,1.99-2.2,1.99-3.52v-28.38l18.04-15.62v44c0,6.6-2.31,12.14-6.93,16.61-4.62,4.48-10.89,6.71-18.81,6.71h-15.62c-7.92,0-14.23-2.24-18.92-6.72Z"/>
        <path class="cls-2" d="m1039.71,154.22h-83.38V.44h73.04l-15.84,18.26h-39.16v52.14h26.18l23.54,18.26h-49.72v46.86h65.34v18.26Z"/>
        <path class="cls-2" d="m1100.21,1.32c3.66,0,7.04.74,10.12,2.2,3.08,1.47,5.72,3.38,7.92,5.72,2.2,2.35,3.92,5.03,5.17,8.03,1.24,3.01,1.87,6.05,1.87,9.13v103.4c0,6.31-2.31,11.66-6.93,16.06-4.62,4.4-10.67,6.6-18.15,6.6h-40.48V1.32h40.48Zm7.48,27.5c0-2.49-.96-4.36-2.86-5.61-1.91-1.24-3.45-1.87-4.62-1.87h-20.46v113.52h22.88c1.32,0,2.49-.51,3.52-1.54,1.03-1.02,1.54-2.2,1.54-3.52V28.82Z"/>
      </g>
      <g>
        <path class="cls-2" d="m524.26,130.24c0,1.32-.67,2.5-1.99,3.52-1.33,1.03-3.25,1.54-5.76,1.54h-15.73c-2.66,0-4.62-.51-5.87-1.54-1.26-1.02-1.88-2.2-1.88-3.52v-36.03l-18.04-23.55v59.55c0,6.61,2.34,12.15,7.04,16.63,4.69,4.48,11,6.72,18.92,6.72h15.62c7.92,0,14.19-2.23,18.81-6.71.34-.33.64-.67.95-1.01l-12.06-15.75v.15Z"/>
        <path class="cls-2" d="m542.3,130.24v-44l-18.04,15.62v11.86l17.29,22.57c.48-1.91.75-3.92.75-6.05Z"/>
        <path class="cls-2" d="m493.02,23.98c0-1.17.63-2.34,1.88-3.52,1.25-1.17,3.21-1.76,5.87-1.76h15.73c2.51,0,4.43.59,5.76,1.76,1.33,1.18,1.99,2.35,1.99,3.52v38.94l18.04-15.4v-23.54c0-6.63-2.31-12.22-6.93-16.75-4.62-4.53-10.89-6.79-18.81-6.79h-15.62c-7.92,0-14.23,2.24-18.92,6.72-.69.65-1.3,1.34-1.89,2.04l12.89,15.88v-1.09Z"/>
        <path class="cls-2" d="m493.02,40.87l-17.62-21.7c-.28,1.48-.42,3.02-.42,4.63v30.5l18.04,23.55v-36.98Z"/>
      </g>
      <g>
        <polygon class="cls-2" points="884.17 18.7 855.57 55.66 855.57 .22 837.09 .22 837.09 108.24 908.15 18.7 884.17 18.7"/>
        <polygon class="cls-2" points="884.17 110.66 873.61 123.86 913.43 155.32 942.25 155.32 884.17 110.66"/>
        <polygon class="cls-2" points="880.71 129.49 843.09 99.89 854.01 86.82 891.63 116.41 880.71 129.49"/>
        <rect class="cls-2" x="837.05" y="96.67" width="17" height="58.71"/>
      </g>
    </g>
  </g>
</svg>